<svg width="1000" height="120" viewBox="0 0 1000 120" fill="none" xmlns="http://www.w3.org/2000/svg">
<rect width="1000" height="120" rx="40" fill="white"/>
<path d="M411.851 69.3735C410.43 69.3735 409.244 69.2637 408.292 69.0439C406.973 68.7656 406.006 68.3335 405.391 67.7476C404.014 64.8325 402.835 61.6392 401.854 58.1675C400.491 53.3628 399.539 48.4043 398.997 43.292C399.656 42.3252 400.557 41.5781 401.7 41.0508C402.842 40.5088 404.117 40.2378 405.523 40.2378C407.632 40.2378 409.288 40.6406 410.489 41.4463C411.705 42.252 412.312 43.4019 412.312 44.896C412.21 46.0093 412.115 47.6426 412.027 49.7959C411.954 51.9492 411.917 53.8975 411.917 55.6406C411.917 56.124 411.961 56.5049 412.049 56.7832C412.151 57.0469 412.356 57.1787 412.664 57.1787C412.781 57.1787 412.928 57.1567 413.104 57.1128C413.089 56.981 413.082 56.7612 413.082 56.4536V55.6846C413.082 53.5605 413.155 51.1143 413.301 48.3457C413.448 45.5625 413.624 43.4897 413.829 42.1274C415.162 41.3071 416.729 40.897 418.531 40.897C420.333 40.897 421.783 41.146 422.881 41.644C424.2 42.2593 424.896 43.1602 424.969 44.3467C424.896 45.7822 424.756 47.1958 424.551 48.5874C424.361 49.979 424.126 51.583 423.848 53.3994C423.57 55.2158 423.394 56.417 423.321 57.0029C423.438 57.0615 423.592 57.0908 423.782 57.0908C423.973 57.0908 424.148 57.0176 424.31 56.8711C424.471 56.7246 424.603 56.373 424.705 55.8164C425.159 53.4727 425.533 51.0044 425.826 48.4116C426.119 45.8042 426.309 43.5337 426.397 41.6001C427.745 40.6919 429.605 40.2378 431.978 40.2378C433.897 40.2378 435.428 40.7505 436.57 41.7759C437.713 42.7866 438.284 44.1489 438.284 45.8628C438.284 47.0054 437.742 50.001 436.658 54.8496C436.102 57.3984 435.567 59.5811 435.054 61.3975C434.542 63.1992 434.124 64.4663 433.802 65.1987C433.128 66.6782 432.117 67.7476 430.77 68.4067C429.437 69.0513 427.73 69.3735 425.65 69.3735C424.815 69.3735 423.848 69.249 422.75 69C421.666 68.751 420.838 68.4727 420.267 68.165C419.974 67.7109 419.644 67.0225 419.278 66.0996C418.912 65.1768 418.685 64.481 418.597 64.0122C418.025 64.0269 417.74 64.3345 417.74 64.9351C417.74 65.4038 417.967 66.2681 418.421 67.5278C416.883 68.7583 414.693 69.3735 411.851 69.3735ZM449.183 40.6553H461.861C462.286 41.3584 462.601 42.1274 462.806 42.9624C463.011 43.7827 463.113 44.5225 463.113 45.1816C463.113 46.6611 462.82 47.7744 462.234 48.5215C461.663 49.2686 460.857 49.6421 459.817 49.6421H450.962C450.42 49.6421 450.149 49.8545 450.149 50.2793V50.4551C450.149 50.543 450.164 50.6016 450.193 50.6309H460.696C460.96 51.085 461.187 51.6562 461.377 52.3447C461.553 53.0918 461.641 53.7583 461.641 54.3442C461.641 56.0874 461.319 57.4497 460.674 58.4312H455.906C453.68 58.4312 452.171 58.519 451.38 58.6948C450.589 58.856 450.098 58.9951 449.908 59.1123C449.717 59.2441 449.622 59.4126 449.622 59.6177C449.622 59.8228 449.725 59.9839 449.93 60.1011C450.691 59.8521 451.49 59.6763 452.325 59.5737C453.423 59.4712 454.617 59.4199 455.906 59.4199H462.081C462.974 60.6797 463.421 62.1958 463.421 63.9683C463.421 64.9644 463.296 65.9165 463.047 66.8247C462.798 67.7329 462.425 68.4653 461.927 69.022H445.469C443.653 69.022 442.195 68.5825 441.097 67.7036C439.896 66.7661 439.295 65.3892 439.295 63.5728V42.6768C439.295 41.9736 440.101 41.4609 441.712 41.1387C443.323 40.8164 445.813 40.6553 449.183 40.6553ZM469.617 69.022C467.991 69.022 466.731 68.5898 465.838 67.7256C464.959 66.8613 464.52 65.5576 464.52 63.8145V42.3252C465.296 41.666 466.241 41.1606 467.354 40.8091C468.482 40.4429 469.646 40.2598 470.848 40.2598C472.62 40.2598 474.122 40.6992 475.352 41.5781C476.685 42.5742 477.352 43.9512 477.352 45.709V57.728C476.531 57.8013 475.726 58.0356 474.935 58.4312C474.144 58.812 473.748 59.2075 473.748 59.6177C473.748 59.8667 473.887 60.0791 474.166 60.2549C475.616 59.0391 477.769 58.4312 480.625 58.4312H485.833C486.8 60.1304 487.283 61.8662 487.283 63.6387C487.283 64.5176 487.129 65.4917 486.822 66.561C486.514 67.6304 486.104 68.4507 485.591 69.022H469.617ZM501.346 60.2549C501.492 60.2549 501.624 60.2183 501.741 60.145V58.1455C502.737 57.4717 504.129 56.9224 505.916 56.4976C507.718 56.0728 509.468 55.8604 511.167 55.8604C511.944 56.6514 512.588 57.8379 513.101 59.4199C513.628 60.9873 513.907 62.4082 513.936 63.6826C513.643 64.2686 513.145 64.8984 512.442 65.5723C511.753 66.2461 510.918 66.8687 509.937 67.4399C507.505 68.8755 504.715 69.5933 501.565 69.5933C497.054 69.5933 493.501 68.2822 490.909 65.6602C488.228 63.0088 486.888 59.3394 486.888 54.6519C486.888 49.9497 488.353 46.2583 491.282 43.5776C492.571 42.3765 494.073 41.4756 495.787 40.875C497.5 40.2598 499.302 39.9521 501.192 39.9521C504.883 39.9521 507.908 40.8457 510.267 42.6328C512.625 44.4199 513.804 46.6245 513.804 49.2466C513.804 51.2241 513.196 52.689 511.98 53.6411C510.765 54.5786 509.117 55.0474 507.037 55.0474C505.894 55.0474 504.744 54.769 503.587 54.2124C502.43 53.6411 501.741 53.1064 501.521 52.6084C501.521 51.4072 501.543 50.4624 501.587 49.7739C501.558 49.7593 501.507 49.752 501.434 49.752H501.28C501.06 49.752 500.884 49.8179 500.752 49.9497C500.635 50.0669 500.525 50.3232 500.423 50.7188C500.335 51.1143 500.291 52.1909 500.291 53.9487C500.291 58.1528 500.643 60.2549 501.346 60.2549ZM529.625 53.8389C529.625 52.374 529.559 51.3706 529.427 50.8286C529.295 50.272 529.053 49.9937 528.702 49.9937C528.482 49.9937 528.284 50.0669 528.108 50.2134C528.138 50.4771 528.182 50.8286 528.24 51.2681C528.299 51.7075 528.328 52.645 528.328 54.0806V55.5088C528.328 56.5049 528.306 57.23 528.262 57.6841C528.218 58.1382 528.182 58.5264 528.152 58.8486C528.138 59.0244 528.123 59.2002 528.108 59.376C528.284 59.5225 528.482 59.5957 528.702 59.5957C529.053 59.5957 529.295 59.3247 529.427 58.7827C529.559 58.2261 529.625 57.2153 529.625 55.7505V53.8389ZM528.746 69.7031C526.138 69.7031 523.743 69.1685 521.561 68.0991C519.393 67.0151 517.642 65.3672 516.309 63.1553C514.976 60.9287 514.31 58.1528 514.31 54.8276C514.31 50.0083 515.76 46.2437 518.66 43.5337C521.238 41.146 524.556 39.9521 528.614 39.9521C533.023 39.9521 536.509 41.3218 539.073 44.061C541.651 46.7856 542.94 50.3745 542.94 54.8276C542.94 59.7788 541.563 63.5581 538.809 66.1655C536.304 68.5239 532.95 69.7031 528.746 69.7031ZM568.187 69.3955C566.18 69.3955 564.605 69.0659 563.462 68.4067C562.232 67.7183 561.565 66.7441 561.463 65.4844L561.265 63.4189C562.613 63.0967 563.748 62.2617 564.671 60.9141C564.92 60.5332 565.044 60.2036 565.044 59.9253C565.044 59.5444 564.854 59.354 564.473 59.354H564.407C564.393 59.3687 564.363 59.376 564.319 59.376C563.294 61.5293 561.631 62.606 559.332 62.606C558.16 62.606 557.156 62.3496 556.321 61.8369C555.501 61.3242 554.747 60.438 554.058 59.1782H553.926C553.531 59.1782 553.333 59.3467 553.333 59.6836C553.333 59.918 553.421 60.1816 553.597 60.4746C554.183 61.4561 554.915 62.2251 555.794 62.7817C556.482 63.2505 557.208 63.5288 557.969 63.6167L557.793 67.7695C556.915 68.3408 555.984 68.751 555.003 69C554.036 69.2637 552.652 69.3955 550.85 69.3955C549.063 69.3955 547.466 69.0439 546.06 68.3408C544.332 67.4766 543.467 66.2754 543.467 64.7373C543.467 62.8184 543.848 58.0796 544.61 50.521C545.02 46.5806 545.35 43.8267 545.599 42.2593C547.107 40.9116 549.334 40.2378 552.278 40.2378C554.417 40.2378 556.189 40.6333 557.596 41.4243L558.804 45.4673L558.035 48.6973C557.977 48.917 557.947 49.1294 557.947 49.3345C557.947 49.8472 558.24 50.1108 558.826 50.1255L560.914 41.4463C561.514 41.124 562.298 40.8457 563.265 40.6113C564.231 40.3623 565.286 40.2378 566.429 40.2378C568.567 40.2378 570.149 40.604 571.175 41.3364C572.215 42.0542 572.83 43.27 573.021 44.9839C573.064 45.3062 573.13 45.8408 573.218 46.5879C574.551 58.043 575.218 64.7886 575.218 66.8247C573.592 68.5386 571.248 69.3955 568.187 69.3955ZM586.204 40.6553H598.882C599.307 41.3584 599.622 42.1274 599.827 42.9624C600.032 43.7827 600.135 44.5225 600.135 45.1816C600.135 46.6611 599.842 47.7744 599.256 48.5215C598.685 49.2686 597.879 49.6421 596.839 49.6421H587.984C587.442 49.6421 587.171 49.8545 587.171 50.2793V50.4551C587.171 50.543 587.186 50.6016 587.215 50.6309H597.718C597.981 51.085 598.208 51.6562 598.399 52.3447C598.575 53.0918 598.663 53.7583 598.663 54.3442C598.663 56.0874 598.34 57.4497 597.696 58.4312H592.928C590.701 58.4312 589.192 58.519 588.401 58.6948C587.61 58.856 587.12 58.9951 586.929 59.1123C586.739 59.2441 586.644 59.4126 586.644 59.6177C586.644 59.8228 586.746 59.9839 586.951 60.1011C587.713 59.8521 588.511 59.6763 589.346 59.5737C590.445 59.4712 591.639 59.4199 592.928 59.4199H599.102C599.996 60.6797 600.442 62.1958 600.442 63.9683C600.442 64.9644 600.318 65.9165 600.069 66.8247C599.82 67.7329 599.446 68.4653 598.948 69.022H582.491C580.674 69.022 579.217 68.5825 578.118 67.7036C576.917 66.7661 576.316 65.3892 576.316 63.5728V42.6768C576.316 41.9736 577.122 41.4609 578.733 41.1387C580.345 40.8164 582.835 40.6553 586.204 40.6553Z" fill="#DCC8C8"/>
<path d="M393.777 82.8281H394.383C394.708 82.8281 394.871 82.7207 394.871 82.5059C394.871 82.4798 394.865 82.4408 394.852 82.3887H392.664C392.521 81.9329 392.449 81.4251 392.449 80.8652C392.449 80.2988 392.492 79.8398 392.576 79.4883C392.947 79.2539 393.458 78.8958 394.109 78.4141C394.292 77.9714 394.529 77.2682 394.822 76.3047C394.861 76.1745 394.907 76.0475 394.959 75.9238C395.467 75.7936 396.046 75.7285 396.697 75.7285C397.348 75.7285 397.99 75.7969 398.621 75.9336V78.3262H400.311C400.688 78.8991 400.877 79.5729 400.877 80.3477C400.877 80.6992 400.828 81.0605 400.73 81.4316C400.633 81.8027 400.493 82.1185 400.311 82.3789H398.914V83.8535C398.914 84.6868 399.262 85.1035 399.959 85.1035H400.379C400.516 85.5983 400.584 86.028 400.584 86.3926C400.584 87.291 400.301 87.9811 399.734 88.4629C399.174 88.9382 398.357 89.1758 397.283 89.1758C396.215 89.1758 395.363 88.8796 394.725 88.2871C394.093 87.6882 393.777 86.8092 393.777 85.6504V82.8281ZM411.561 84.166C411.561 84.6348 411.613 85.0124 411.717 85.2988C411.821 85.5853 412.003 85.8099 412.264 85.9727C412.27 86.0052 412.273 86.0671 412.273 86.1582V86.334C412.273 87.2324 412.013 87.9323 411.492 88.4336C410.978 88.9284 410.311 89.1758 409.49 89.1758C408.676 89.1758 408.016 88.9447 407.508 88.4824C406.915 87.9551 406.619 87.1543 406.619 86.0801C406.619 85.6243 406.639 85.224 406.678 84.8789C406.723 84.5273 406.753 84.2767 406.766 84.127C406.785 83.9772 406.805 83.8372 406.824 83.707C406.844 83.5768 406.854 83.3848 406.854 83.1309C406.854 82.877 406.818 82.6947 406.746 82.584C406.681 82.4733 406.587 82.418 406.463 82.418C406.346 82.418 406.242 82.444 406.15 82.4961L406.277 84.0879C406.16 84.7454 406.102 85.4421 406.102 86.1777C406.102 86.9134 406.268 87.584 406.6 88.1895C405.962 88.847 405.066 89.1758 403.914 89.1758C403.257 89.1758 402.687 89.0033 402.205 88.6582C401.645 88.2676 401.365 87.75 401.365 87.1055V75.709C401.678 75.5267 402.052 75.377 402.488 75.2598C402.931 75.1426 403.377 75.084 403.826 75.084C404.575 75.084 405.193 75.2305 405.682 75.5234C406.235 75.8685 406.512 76.3633 406.512 77.0078V77.9355C405.945 77.9681 405.402 78.1309 404.881 78.4238C404.432 78.6842 404.207 78.9219 404.207 79.1367C404.207 79.2083 404.233 79.2734 404.285 79.332C404.337 79.3841 404.399 79.4167 404.471 79.4297C404.744 79.1107 405.128 78.8438 405.623 78.6289C406.124 78.4141 406.717 78.3066 407.4 78.3066C408.084 78.3066 408.699 78.4108 409.246 78.6191C409.936 78.8796 410.48 79.2767 410.877 79.8105C411.352 80.4616 411.59 81.2786 411.59 82.2617L411.561 84.166ZM417.625 80.2109V84.0781C417.625 85.0482 417.859 85.6797 418.328 85.9727C418.335 86.0052 418.338 86.0671 418.338 86.1582V86.334C418.338 87.291 418.077 88.0104 417.557 88.4922C417.075 88.9479 416.43 89.1758 415.623 89.1758C414.822 89.1758 414.161 88.9479 413.641 88.4922C412.983 87.9128 412.654 87.0664 412.654 85.9531V79.6055C412.771 79.5208 412.898 79.4525 413.035 79.4004C413.172 79.3483 413.315 79.2832 413.465 79.2051C413.185 79.0618 412.931 78.8145 412.703 78.4629C412.475 78.1048 412.361 77.6882 412.361 77.2129C412.361 76.3926 412.632 75.722 413.172 75.2012C413.712 74.6803 414.373 74.4199 415.154 74.4199C415.942 74.4199 416.6 74.6868 417.127 75.2207C417.661 75.748 417.928 76.4121 417.928 77.2129C417.928 77.8574 417.726 78.4238 417.322 78.9121C416.919 79.3939 416.427 79.6966 415.848 79.8203C415.848 80.0677 415.942 80.1914 416.131 80.1914C416.463 80.1914 416.801 80.0612 417.146 79.8008C417.407 80.0026 417.566 80.1393 417.625 80.2109ZM423.963 81.3438C423.794 81.3958 423.709 81.4967 423.709 81.6465V81.6953C423.709 81.7279 423.712 81.7474 423.719 81.7539C423.79 81.7474 423.885 81.7441 424.002 81.7441H424.236C424.979 81.7441 425.672 81.8581 426.316 82.0859C426.967 82.3073 427.498 82.6654 427.908 83.1602C428.364 83.7201 428.592 84.4264 428.592 85.2793C428.592 86.6074 428.133 87.61 427.215 88.2871C426.297 88.9642 425.07 89.3027 423.533 89.3027C421.997 89.3027 420.792 89.0488 419.92 88.541C419.054 88.0332 418.621 87.2878 418.621 86.3047C418.621 85.9401 418.699 85.6081 418.855 85.3086C419.012 85.0026 419.188 84.7878 419.383 84.6641C419.741 84.9635 420.258 85.224 420.936 85.4453C421.619 85.6602 422.342 85.7676 423.104 85.7676C423.41 85.7676 423.562 85.6829 423.562 85.5137C423.562 85.4355 423.553 85.3704 423.533 85.3184C423.488 85.3249 423.432 85.3281 423.367 85.3281H423.26C421.88 85.3281 420.776 85.0547 419.949 84.5078C419.012 83.8893 418.543 83.0169 418.543 81.8906C418.543 80.7643 418.963 79.8529 419.803 79.1562C420.734 78.388 422.013 78.0039 423.641 78.0039C424.441 78.0039 425.187 78.0885 425.877 78.2578C426.574 78.4271 427.169 78.6517 427.664 78.9316C427.788 79.1986 427.85 79.5924 427.85 80.1133C427.85 80.9076 427.632 81.5163 427.195 81.9395C426.863 81.7572 426.456 81.6074 425.975 81.4902C425.499 81.3665 425.07 81.3047 424.686 81.3047C424.301 81.3047 424.061 81.3177 423.963 81.3438ZM438.641 80.2109V84.0781C438.641 85.0482 438.875 85.6797 439.344 85.9727C439.35 86.0052 439.354 86.0671 439.354 86.1582V86.334C439.354 87.291 439.093 88.0104 438.572 88.4922C438.09 88.9479 437.446 89.1758 436.639 89.1758C435.838 89.1758 435.177 88.9479 434.656 88.4922C433.999 87.9128 433.67 87.0664 433.67 85.9531V79.6055C433.787 79.5208 433.914 79.4525 434.051 79.4004C434.188 79.3483 434.331 79.2832 434.48 79.2051C434.201 79.0618 433.947 78.8145 433.719 78.4629C433.491 78.1048 433.377 77.6882 433.377 77.2129C433.377 76.3926 433.647 75.722 434.188 75.2012C434.728 74.6803 435.389 74.4199 436.17 74.4199C436.958 74.4199 437.615 74.6868 438.143 75.2207C438.676 75.748 438.943 76.4121 438.943 77.2129C438.943 77.8574 438.742 78.4238 438.338 78.9121C437.934 79.3939 437.443 79.6966 436.863 79.8203C436.863 80.0677 436.958 80.1914 437.146 80.1914C437.479 80.1914 437.817 80.0612 438.162 79.8008C438.423 80.0026 438.582 80.1393 438.641 80.2109ZM444.979 81.3438C444.809 81.3958 444.725 81.4967 444.725 81.6465V81.6953C444.725 81.7279 444.728 81.7474 444.734 81.7539C444.806 81.7474 444.9 81.7441 445.018 81.7441H445.252C445.994 81.7441 446.688 81.8581 447.332 82.0859C447.983 82.3073 448.514 82.6654 448.924 83.1602C449.38 83.7201 449.607 84.4264 449.607 85.2793C449.607 86.6074 449.148 87.61 448.23 88.2871C447.312 88.9642 446.085 89.3027 444.549 89.3027C443.012 89.3027 441.808 89.0488 440.936 88.541C440.07 88.0332 439.637 87.2878 439.637 86.3047C439.637 85.9401 439.715 85.6081 439.871 85.3086C440.027 85.0026 440.203 84.7878 440.398 84.6641C440.757 84.9635 441.274 85.224 441.951 85.4453C442.635 85.6602 443.357 85.7676 444.119 85.7676C444.425 85.7676 444.578 85.6829 444.578 85.5137C444.578 85.4355 444.568 85.3704 444.549 85.3184C444.503 85.3249 444.448 85.3281 444.383 85.3281H444.275C442.895 85.3281 441.792 85.0547 440.965 84.5078C440.027 83.8893 439.559 83.0169 439.559 81.8906C439.559 80.7643 439.979 79.8529 440.818 79.1562C441.749 78.388 443.029 78.0039 444.656 78.0039C445.457 78.0039 446.202 78.0885 446.893 78.2578C447.589 78.4271 448.185 78.6517 448.68 78.9316C448.803 79.1986 448.865 79.5924 448.865 80.1133C448.865 80.9076 448.647 81.5163 448.211 81.9395C447.879 81.7572 447.472 81.6074 446.99 81.4902C446.515 81.3665 446.085 81.3047 445.701 81.3047C445.317 81.3047 445.076 81.3177 444.979 81.3438ZM455.77 82.8281H456.375C456.701 82.8281 456.863 82.7207 456.863 82.5059C456.863 82.4798 456.857 82.4408 456.844 82.3887H454.656C454.513 81.9329 454.441 81.4251 454.441 80.8652C454.441 80.2988 454.484 79.8398 454.568 79.4883C454.939 79.2539 455.451 78.8958 456.102 78.4141C456.284 77.9714 456.521 77.2682 456.814 76.3047C456.854 76.1745 456.899 76.0475 456.951 75.9238C457.459 75.7936 458.038 75.7285 458.689 75.7285C459.34 75.7285 459.982 75.7969 460.613 75.9336V78.3262H462.303C462.68 78.8991 462.869 79.5729 462.869 80.3477C462.869 80.6992 462.82 81.0605 462.723 81.4316C462.625 81.8027 462.485 82.1185 462.303 82.3789H460.906V83.8535C460.906 84.6868 461.255 85.1035 461.951 85.1035H462.371C462.508 85.5983 462.576 86.028 462.576 86.3926C462.576 87.291 462.293 87.9811 461.727 88.4629C461.167 88.9382 460.35 89.1758 459.275 89.1758C458.208 89.1758 457.355 88.8796 456.717 88.2871C456.085 87.6882 455.77 86.8092 455.77 85.6504V82.8281ZM473.553 84.166C473.553 84.6348 473.605 85.0124 473.709 85.2988C473.813 85.5853 473.995 85.8099 474.256 85.9727C474.262 86.0052 474.266 86.0671 474.266 86.1582V86.334C474.266 87.2324 474.005 87.9323 473.484 88.4336C472.97 88.9284 472.303 89.1758 471.482 89.1758C470.669 89.1758 470.008 88.9447 469.5 88.4824C468.908 87.9551 468.611 87.1543 468.611 86.0801C468.611 85.6243 468.631 85.224 468.67 84.8789C468.715 84.5273 468.745 84.2767 468.758 84.127C468.777 83.9772 468.797 83.8372 468.816 83.707C468.836 83.5768 468.846 83.3848 468.846 83.1309C468.846 82.877 468.81 82.6947 468.738 82.584C468.673 82.4733 468.579 82.418 468.455 82.418C468.338 82.418 468.234 82.444 468.143 82.4961L468.27 84.0879C468.152 84.7454 468.094 85.4421 468.094 86.1777C468.094 86.9134 468.26 87.584 468.592 88.1895C467.954 88.847 467.059 89.1758 465.906 89.1758C465.249 89.1758 464.679 89.0033 464.197 88.6582C463.637 88.2676 463.357 87.75 463.357 87.1055V75.709C463.67 75.5267 464.044 75.377 464.48 75.2598C464.923 75.1426 465.369 75.084 465.818 75.084C466.567 75.084 467.186 75.2305 467.674 75.5234C468.227 75.8685 468.504 76.3633 468.504 77.0078V77.9355C467.938 77.9681 467.394 78.1309 466.873 78.4238C466.424 78.6842 466.199 78.9219 466.199 79.1367C466.199 79.2083 466.225 79.2734 466.277 79.332C466.329 79.3841 466.391 79.4167 466.463 79.4297C466.736 79.1107 467.12 78.8438 467.615 78.6289C468.117 78.4141 468.709 78.3066 469.393 78.3066C470.076 78.3066 470.691 78.4108 471.238 78.6191C471.928 78.8796 472.472 79.2767 472.869 79.8105C473.344 80.4616 473.582 81.2786 473.582 82.2617L473.553 84.166ZM480.252 89.3027C478.449 89.3027 477.026 88.8014 475.984 87.7988C474.917 86.7897 474.383 85.4095 474.383 83.6582C474.383 81.9004 474.933 80.5072 476.033 79.4785C477.049 78.5215 478.335 78.043 479.891 78.043C481.447 78.043 482.693 78.4727 483.631 79.332C484.575 80.1849 485.047 81.2363 485.047 82.4863C485.047 83.5996 484.66 84.4395 483.885 85.0059C483.169 85.5397 482.192 85.8066 480.955 85.8066C480.031 85.8066 479.249 85.6146 478.611 85.2305C478.559 85.2695 478.533 85.3411 478.533 85.4453C478.533 85.6406 478.79 85.8197 479.305 85.9824C479.819 86.1582 480.402 86.2461 481.053 86.2461C481.71 86.2461 482.306 86.1647 482.84 86.002C483.38 85.8327 483.813 85.6341 484.139 85.4062C484.295 85.543 484.419 85.7969 484.51 86.168C484.607 86.5326 484.656 86.8678 484.656 87.1738C484.656 87.4733 484.627 87.7402 484.568 87.9746C484.061 88.4043 483.54 88.7103 483.006 88.8926C482.251 89.166 481.333 89.3027 480.252 89.3027ZM480.125 82.6914C480.451 82.6914 480.613 82.5677 480.613 82.3203C480.613 82.0859 480.441 81.9688 480.096 81.9688C479.751 81.9688 479.552 82.1543 479.5 82.5254C479.682 82.6361 479.891 82.6914 480.125 82.6914ZM500.574 84.166C500.574 84.6348 500.626 85.0124 500.73 85.2988C500.835 85.5853 501.017 85.8099 501.277 85.9727C501.284 86.0052 501.287 86.0671 501.287 86.1582V86.334C501.287 87.2324 501.027 87.9323 500.506 88.4336C499.992 88.9284 499.324 89.1758 498.504 89.1758C497.69 89.1758 497.029 88.9447 496.521 88.4824C495.929 87.9551 495.633 87.1543 495.633 86.0801C495.633 85.6243 495.652 85.224 495.691 84.8789C495.737 84.5273 495.766 84.2767 495.779 84.127C495.799 83.9772 495.818 83.8372 495.838 83.707C495.857 83.5768 495.867 83.3848 495.867 83.1309C495.867 82.877 495.831 82.6947 495.76 82.584C495.695 82.4733 495.6 82.418 495.477 82.418C495.359 82.418 495.255 82.444 495.164 82.4961L495.291 84.0879C495.174 84.7454 495.115 85.4421 495.115 86.1777C495.115 86.9134 495.281 87.584 495.613 88.1895C494.975 88.847 494.08 89.1758 492.928 89.1758C492.27 89.1758 491.701 89.0033 491.219 88.6582C490.659 88.2676 490.379 87.75 490.379 87.1055V82.3789C489.995 81.8385 489.803 81.1745 489.803 80.3867C489.803 79.5924 489.995 78.9056 490.379 78.3262H492.117C492.579 78.3262 492.973 78.4987 493.299 78.8438C493.012 79.1107 492.869 79.332 492.869 79.5078C492.869 79.7096 492.983 79.8105 493.211 79.8105C493.497 79.3158 493.934 78.9056 494.52 78.5801C495.112 78.2546 495.783 78.0918 496.531 78.0918C497.658 78.0918 498.572 78.3685 499.275 78.9219C500.161 79.6185 500.604 80.6992 500.604 82.1641L500.574 84.166ZM506.668 83.5605V85.2695C506.714 85.3151 506.788 85.3379 506.893 85.3379C506.997 85.3379 507.072 85.3021 507.117 85.2305C507.163 85.1589 507.186 85.0352 507.186 84.8594V83.4629C507.186 82.8379 507.16 82.4245 507.107 82.2227C507.055 82.0143 506.958 81.9102 506.814 81.9102C506.723 81.9102 506.645 81.9427 506.58 82.0078C506.639 82.6523 506.668 83.1699 506.668 83.5605ZM503.016 87.8867C501.948 86.8581 501.414 85.4648 501.414 83.707C501.414 81.9427 501.915 80.5527 502.918 79.5371C503.927 78.515 505.249 78.0039 506.883 78.0039C508.517 78.0039 509.839 78.5345 510.848 79.5957C511.85 80.6569 512.352 82.0404 512.352 83.7461C512.352 85.4453 511.867 86.7962 510.896 87.7988C509.933 88.8014 508.621 89.3027 506.961 89.3027C505.301 89.3027 503.986 88.8307 503.016 87.8867ZM513.738 82.8281H514.344C514.669 82.8281 514.832 82.7207 514.832 82.5059C514.832 82.4798 514.826 82.4408 514.812 82.3887H512.625C512.482 81.9329 512.41 81.4251 512.41 80.8652C512.41 80.2988 512.452 79.8398 512.537 79.4883C512.908 79.2539 513.419 78.8958 514.07 78.4141C514.253 77.9714 514.49 77.2682 514.783 76.3047C514.822 76.1745 514.868 76.0475 514.92 75.9238C515.428 75.7936 516.007 75.7285 516.658 75.7285C517.309 75.7285 517.951 75.7969 518.582 75.9336V78.3262H520.271C520.649 78.8991 520.838 79.5729 520.838 80.3477C520.838 80.6992 520.789 81.0605 520.691 81.4316C520.594 81.8027 520.454 82.1185 520.271 82.3789H518.875V83.8535C518.875 84.6868 519.223 85.1035 519.92 85.1035H520.34C520.477 85.5983 520.545 86.028 520.545 86.3926C520.545 87.291 520.262 87.9811 519.695 88.4629C519.135 88.9382 518.318 89.1758 517.244 89.1758C516.176 89.1758 515.324 88.8796 514.686 88.2871C514.054 87.6882 513.738 86.8092 513.738 85.6504V82.8281ZM526.297 80.2109V84.0781C526.297 85.0482 526.531 85.6797 527 85.9727C527.007 86.0052 527.01 86.0671 527.01 86.1582V86.334C527.01 87.291 526.749 88.0104 526.229 88.4922C525.747 88.9479 525.102 89.1758 524.295 89.1758C523.494 89.1758 522.833 88.9479 522.312 88.4922C521.655 87.9128 521.326 87.0664 521.326 85.9531V79.6055C521.443 79.5208 521.57 79.4525 521.707 79.4004C521.844 79.3483 521.987 79.2832 522.137 79.2051C521.857 79.0618 521.603 78.8145 521.375 78.4629C521.147 78.1048 521.033 77.6882 521.033 77.2129C521.033 76.3926 521.303 75.722 521.844 75.2012C522.384 74.6803 523.045 74.4199 523.826 74.4199C524.614 74.4199 525.271 74.6868 525.799 75.2207C526.333 75.748 526.6 76.4121 526.6 77.2129C526.6 77.8574 526.398 78.4238 525.994 78.9121C525.59 79.3939 525.099 79.6966 524.52 79.8203C524.52 80.0677 524.614 80.1914 524.803 80.1914C525.135 80.1914 525.473 80.0612 525.818 79.8008C526.079 80.0026 526.238 80.1393 526.297 80.2109ZM532.693 89.3027C531.001 89.3027 529.65 88.7819 528.641 87.7402C527.638 86.6921 527.137 85.2891 527.137 83.5312C527.137 81.7734 527.706 80.3835 528.846 79.3613C529.861 78.4499 531.131 77.9941 532.654 77.9941C534.008 77.9941 535.132 78.3294 536.023 79C536.915 79.6641 537.361 80.569 537.361 81.7148C537.361 82.5091 537.114 83.1569 536.619 83.6582C536.131 84.153 535.486 84.4004 534.686 84.4004C534.035 84.4004 533.491 84.2279 533.055 83.8828C532.625 83.5312 532.371 83.0755 532.293 82.5156C532.007 82.5156 531.863 82.6198 531.863 82.8281C531.863 83.3034 532.098 83.7396 532.566 84.1367C533.107 84.6055 533.777 84.8398 534.578 84.8398C535.385 84.8398 536.053 84.6673 536.58 84.3223C536.906 84.8236 537.068 85.4323 537.068 86.1484C537.068 86.9818 536.71 87.6947 535.994 88.2871C535.174 88.9642 534.074 89.3027 532.693 89.3027ZM543.494 89.3027C541.691 89.3027 540.268 88.8014 539.227 87.7988C538.159 86.7897 537.625 85.4095 537.625 83.6582C537.625 81.9004 538.175 80.5072 539.275 79.4785C540.291 78.5215 541.577 78.043 543.133 78.043C544.689 78.043 545.936 78.4727 546.873 79.332C547.817 80.1849 548.289 81.2363 548.289 82.4863C548.289 83.5996 547.902 84.4395 547.127 85.0059C546.411 85.5397 545.434 85.8066 544.197 85.8066C543.273 85.8066 542.492 85.6146 541.854 85.2305C541.801 85.2695 541.775 85.3411 541.775 85.4453C541.775 85.6406 542.033 85.8197 542.547 85.9824C543.061 86.1582 543.644 86.2461 544.295 86.2461C544.952 86.2461 545.548 86.1647 546.082 86.002C546.622 85.8327 547.055 85.6341 547.381 85.4062C547.537 85.543 547.661 85.7969 547.752 86.168C547.85 86.5326 547.898 86.8678 547.898 87.1738C547.898 87.4733 547.869 87.7402 547.811 87.9746C547.303 88.4043 546.782 88.7103 546.248 88.8926C545.493 89.166 544.575 89.3027 543.494 89.3027ZM543.367 82.6914C543.693 82.6914 543.855 82.5677 543.855 82.3203C543.855 82.0859 543.683 81.9688 543.338 81.9688C542.993 81.9688 542.794 82.1543 542.742 82.5254C542.924 82.6361 543.133 82.6914 543.367 82.6914ZM558.289 85.0059C558.354 85.071 558.432 85.1035 558.523 85.1035C558.667 85.1035 558.764 85.0026 558.816 84.8008C558.868 84.5924 558.895 84.1758 558.895 83.5508V82.5547C558.895 82.3789 558.872 82.2552 558.826 82.1836C558.781 82.112 558.706 82.0762 558.602 82.0762C558.497 82.0762 558.423 82.099 558.377 82.1445V83.4531C558.377 83.8438 558.348 84.3613 558.289 85.0059ZM558.68 77.0078V77.877C558.133 77.9095 557.632 77.9941 557.176 78.1309C556.72 78.2611 556.492 78.4141 556.492 78.5898C556.492 78.694 556.544 78.7786 556.648 78.8438C557.365 78.4922 558.123 78.3164 558.924 78.3164C560.356 78.3164 561.528 78.8112 562.439 79.8008C563.357 80.7839 563.816 82.0664 563.816 83.6484C563.816 85.5625 563.263 87.0046 562.156 87.9746C561.147 88.86 559.773 89.3027 558.035 89.3027C556.303 89.3027 555.027 88.9674 554.207 88.2969C553.758 87.9258 553.533 87.444 553.533 86.8516V75.709C553.846 75.5267 554.22 75.377 554.656 75.2598C555.099 75.1426 555.545 75.084 555.994 75.084C556.743 75.084 557.361 75.2305 557.85 75.5234C558.403 75.8685 558.68 76.3633 558.68 77.0078ZM569.461 83.5605V85.2695C569.507 85.3151 569.581 85.3379 569.686 85.3379C569.79 85.3379 569.865 85.3021 569.91 85.2305C569.956 85.1589 569.979 85.0352 569.979 84.8594V83.4629C569.979 82.8379 569.952 82.4245 569.9 82.2227C569.848 82.0143 569.751 81.9102 569.607 81.9102C569.516 81.9102 569.438 81.9427 569.373 82.0078C569.432 82.6523 569.461 83.1699 569.461 83.5605ZM565.809 87.8867C564.741 86.8581 564.207 85.4648 564.207 83.707C564.207 81.9427 564.708 80.5527 565.711 79.5371C566.72 78.515 568.042 78.0039 569.676 78.0039C571.31 78.0039 572.632 78.5345 573.641 79.5957C574.643 80.6569 575.145 82.0404 575.145 83.7461C575.145 85.4453 574.66 86.7962 573.689 87.7988C572.726 88.8014 571.414 89.3027 569.754 89.3027C568.094 89.3027 566.779 88.8307 565.809 87.8867ZM585.525 84.166C585.525 84.6348 585.577 85.0124 585.682 85.2988C585.786 85.5853 585.968 85.8099 586.229 85.9727C586.235 86.0052 586.238 86.0671 586.238 86.1582V86.334C586.238 87.2585 585.958 87.9779 585.398 88.4922C584.904 88.9479 584.292 89.1758 583.562 89.1758C583.068 89.1758 582.615 89.0586 582.205 88.8242C581.795 88.5898 581.502 88.2513 581.326 87.8086C581.105 87.8086 580.994 87.916 580.994 88.1309C580.994 88.3132 581.108 88.5182 581.336 88.7461C580.913 89.0326 580.275 89.1758 579.422 89.1758C578.217 89.1758 577.254 88.8503 576.531 88.1992C575.815 87.5417 575.457 86.627 575.457 85.4551C575.457 84.2767 575.838 83.3652 576.6 82.7207C577.296 82.1413 578.198 81.8516 579.305 81.8516C579.682 81.8516 580.047 81.8776 580.398 81.9297C580.633 81.9753 580.76 82.0013 580.779 82.0078C580.799 81.9427 580.809 81.8874 580.809 81.8418C580.809 81.6725 580.665 81.5586 580.379 81.5C580.092 81.4414 579.718 81.4121 579.256 81.4121C578.273 81.4121 577.433 81.6107 576.736 82.0078C576.417 81.4674 576.258 80.7839 576.258 79.957C576.258 79.4883 576.316 79.14 576.434 78.9121C576.902 78.6973 577.498 78.5085 578.221 78.3457C578.943 78.1764 579.705 78.0918 580.506 78.0918C582.16 78.0918 583.41 78.4531 584.256 79.1758C585.102 79.8984 585.525 80.9238 585.525 82.252V84.166ZM580.457 84.6445C580.184 84.6445 580.047 84.7682 580.047 85.0156C580.047 85.25 580.206 85.3672 580.525 85.3672C580.747 85.3672 580.91 85.3151 581.014 85.2109C581.118 85.1003 581.17 84.9115 581.17 84.6445C581.17 84.6445 580.932 84.6445 580.457 84.6445ZM589.412 89.127C588.637 89.127 588.019 88.987 587.557 88.707C587.042 88.4141 586.785 87.9811 586.785 87.4082V82.3789C586.401 81.8385 586.209 81.1745 586.209 80.3867C586.209 79.5924 586.401 78.9056 586.785 78.3262H588.279C589.048 78.3262 589.598 78.5736 589.93 79.0684C589.767 79.2507 589.624 79.4818 589.5 79.7617C589.376 80.0417 589.314 80.2435 589.314 80.3672C589.314 80.4844 589.344 80.5723 589.402 80.6309C589.467 80.6895 589.559 80.7188 589.676 80.7188C589.904 79.8138 590.337 79.1497 590.975 78.7266C591.502 78.3685 592.153 78.1895 592.928 78.1895C593.891 78.1895 594.646 78.3945 595.193 78.8047C595.389 79.3255 595.486 79.9635 595.486 80.7188C595.486 81.4674 595.337 82.1478 595.037 82.7598C594.816 82.877 594.51 82.9779 594.119 83.0625C593.729 83.1406 593.335 83.1797 592.938 83.1797C592.54 83.1797 592.182 83.1536 591.863 83.1016C591.551 83.043 591.323 82.9909 591.18 82.9453C591.128 82.9974 591.102 83.0723 591.102 83.1699C591.102 83.2676 591.163 83.3424 591.287 83.3945C591.417 83.4401 591.632 83.4922 591.932 83.5508V88.4531C591.222 88.9023 590.382 89.127 589.412 89.127ZM601.336 82.0762C601.271 82.0111 601.193 81.9785 601.102 81.9785C600.958 81.9785 600.861 82.0827 600.809 82.291C600.757 82.4928 600.73 82.9062 600.73 83.5312V84.5273C600.73 84.7031 600.753 84.8268 600.799 84.8984C600.844 84.9701 600.919 85.0059 601.023 85.0059C601.128 85.0059 601.202 84.9831 601.248 84.9375V83.6289C601.248 82.9909 601.277 82.4733 601.336 82.0762ZM600.633 76.3047C600.978 75.901 601.359 75.5983 601.775 75.3965C602.192 75.1882 602.723 75.084 603.367 75.084C604.148 75.084 604.783 75.3021 605.271 75.7383C605.773 76.207 606.023 76.8385 606.023 77.6328V84.0781C606.023 85.0482 606.258 85.6797 606.727 85.9727C606.733 86.0052 606.736 86.0671 606.736 86.1582V86.334C606.736 87.2585 606.456 87.9779 605.896 88.4922C605.402 88.9479 604.79 89.1758 604.061 89.1758C603.553 89.1758 603.113 89.0684 602.742 88.8535C602.306 88.6061 602 88.2676 601.824 87.8379C601.603 87.8379 601.492 87.9453 601.492 88.1602C601.492 88.2578 601.528 88.3717 601.6 88.502C601.678 88.6257 601.782 88.7363 601.912 88.834C601.528 89.0618 601.03 89.1758 600.418 89.1758C599.591 89.1758 598.816 88.987 598.094 88.6094C597.378 88.2253 596.808 87.6491 596.385 86.8809C595.896 86.002 595.652 84.9375 595.652 83.6875C595.652 82.0208 596.118 80.7122 597.049 79.7617C597.986 78.8112 599.181 78.3359 600.633 78.3359C601.492 78.3359 602.241 78.4987 602.879 78.8242C602.951 78.7526 602.986 78.6777 602.986 78.5996C602.986 78.4043 602.755 78.2383 602.293 78.1016C601.831 77.9648 601.365 77.8965 600.896 77.8965C600.896 77.2324 600.809 76.7018 600.633 76.3047Z" fill="#DCC8C8"/>
</svg>
