<svg width="27" height="31" viewBox="0 0 27 31" fill="none" xmlns="http://www.w3.org/2000/svg">
<path d="M11.0373 2.5C11.0373 1.11929 12.1566 0 13.5373 0C14.918 0 16.0373 1.11929 16.0373 2.5V13.5C16.0373 14.8807 14.918 16 13.5373 16C12.1566 16 11.0373 14.8807 11.0373 13.5V2.5Z" fill="white"/>
<path d="M8.75226 7.31633C8.14676 6.05548 6.61458 5.50678 5.48878 6.33681C3.72786 7.63512 2.29816 9.35007 1.3377 11.3438C0.00844586 14.1031 -0.343028 17.2324 0.340995 20.2178C1.02502 23.2033 2.70388 25.8674 5.10189 27.7727C7.49991 29.678 10.4745 30.7113 13.5373 30.7028C16.6001 30.6943 19.569 29.6447 21.9564 27.7261C24.3439 25.8076 26.008 23.1343 26.6755 20.1451C27.343 17.1559 26.9742 14.0286 25.6298 11.2767C24.6583 9.28829 23.2191 7.58127 21.4511 6.29271C20.3207 5.46891 18.7916 6.02607 18.1931 7.29025C17.5946 8.55443 18.1721 10.0422 19.2027 10.9879C19.9742 11.6958 20.6126 12.5461 21.0787 13.5002C21.9188 15.2196 22.1492 17.1735 21.7321 19.0412C21.315 20.9088 20.2753 22.5791 18.7836 23.7778C17.2919 24.9765 15.4369 25.6324 13.5233 25.6377C11.6097 25.6429 9.75113 24.9974 8.25284 23.8069C6.75456 22.6165 5.7056 20.9519 5.27822 19.0866C4.85084 17.2213 5.07044 15.2661 5.90097 13.5421C6.3618 12.5855 6.99553 11.7316 7.76309 11.0195C8.78845 10.0681 9.35775 8.57719 8.75226 7.31633Z" fill="white"/>
</svg>
