<svg width="55" height="55" viewBox="0 0 55 55" fill="none" xmlns="http://www.w3.org/2000/svg">
<path d="M27.5 6.875C38.8909 6.875 48.125 16.1091 48.125 27.5C48.125 38.8909 38.8909 48.125 27.5 48.125C16.1091 48.125 6.875 38.8909 6.875 27.5C6.875 16.1091 16.1091 6.875 27.5 6.875ZM37.9297 17.0703C37.5392 16.68 36.9061 16.68 36.5156 17.0703C36.1254 17.4608 36.1254 18.0939 36.5156 18.4844C38.2986 20.2675 39.5129 22.5395 40.0049 25.0127C40.4968 27.4858 40.2442 30.0493 39.2793 32.3789C38.3143 34.7085 36.6805 36.7006 34.584 38.1016C32.4874 39.5024 30.0215 40.2499 27.5 40.25C24.9785 40.2499 22.5126 39.5024 20.416 38.1016C18.3195 36.7006 16.6857 34.7085 15.7207 32.3789C14.7558 30.0493 14.5032 27.4858 14.9951 25.0127C15.4871 22.5395 16.7014 20.2675 18.4844 18.4844C18.8746 18.0939 18.8746 17.4608 18.4844 17.0703C18.0939 16.68 17.4608 16.68 17.0703 17.0703C15.0077 19.133 13.6024 21.7611 13.0332 24.6221C12.4641 27.4832 12.7567 30.4494 13.873 33.1445C14.9894 35.8396 16.8802 38.1439 19.3057 39.7646C21.731 41.385 24.5831 42.2499 27.5 42.25C30.4169 42.2499 33.269 41.385 35.6943 39.7646C38.1198 38.1439 40.0106 35.8396 41.127 33.1445C42.2433 30.4494 42.5359 27.4832 41.9668 24.6221C41.3976 21.7611 39.9923 19.133 37.9297 17.0703ZM27.5 12.75C26.9479 12.7502 26.5 13.1978 26.5 13.75V20.625C26.5 21.1772 26.9479 21.6248 27.5 21.625C28.0521 21.6248 28.5 21.1772 28.5 20.625V13.75C28.5 13.1978 28.0521 12.7502 27.5 12.75Z" fill="#222222"/>
</svg>
